<?xml version="1.0" encoding="UTF-8" standalone="no"?>
<!DOCTYPE svg PUBLIC "-//W3C//DTD SVG 1.1//EN" "http://www.w3.org/Graphics/SVG/1.1/DTD/svg11.dtd">
<svg xmlns="http://www.w3.org/2000/svg" xmlns:xlink="http://www.w3.org/1999/xlink" version="1.1" width="800pt" height="800pt" viewBox="0 0 800 800">
<g enable-background="new">
<g id="Layer-1" data-name="Layer">
<clipPath id="cp0">
<path transform="matrix(1,0,0,-1,0,800)" d="M 0 800 L 800 800 L 800 0 L 0 0 Z "/>
</clipPath>
<g clip-path="url(#cp0)">
<path transform="matrix(1,0,0,-1,405.4092,636.8335)" d="M 0 0 C -94.237 2.881 -168.062 41.929 -221.332 119.35 C -227.089 127.722 -226.081 130.843 -215.665 132.306 C -205.78 133.692 -198.842 134.27 -191.29 124.366 C -135.591 51.294 -60.94 17.098 29.937 29.748 C 126.326 43.164 191.247 99.388 223.525 191.651 C 227.06 201.754 231.659 206.192 242.02 207.795 C 252.937 209.48 256.029 207.603 253.187 196.142 C 227.396 92.227 132.81 11.493 25.31 2.103 C 16.68 1.35 8.047 .667 0 0 " fill-rule="evenodd"/>
<path transform="matrix(1,0,0,-1,121.8369,188.30713)" d="M 0 0 C 21.893 -21.229 49.771 -19.426 76.152 -22.664 C 103.028 -25.963 129.319 -31.12 152.715 -45.931 C 170.271 -57.04 180.736 -72.994 185.023 -93.092 C 185.978 -97.569 189.371 -103.958 181.881 -105.504 C 175.441 -106.834 167.862 -111.609 162.31 -102.614 C 143.011 -71.349 112.025 -59.12 78.249 -51.621 C 76.549 -51.244 74.729 -51.418 72.322 -53.447 C 80.104 -56.039 87.853 -58.721 95.667 -61.208 C 116.525 -67.853 134.993 -78.313 149.077 -95.393 C 158.624 -106.964 157.644 -109.919 143.543 -112.372 C 119.286 -116.59 94.942 -120.313 70.662 -124.412 C 65.316 -125.319 61.128 -124.453 57.047 -120.438 C 23.544 -87.489 7.596 -46.17 0 0 " fill-rule="evenodd"/>
<path transform="matrix(1,0,0,-1,405.7944,137.71338)" d="M 0 0 C -62.599 -.034 -116.806 -21.457 -162.85 -63.85 C -167.116 -67.779 -170.743 -74.257 -177.128 -73.429 C -185.028 -72.404 -196.053 -74.45 -199.858 -67.32 C -203.12 -61.219 -193.302 -56.62 -188.805 -51.929 C -74.732 67.128 125.594 48.529 217.071 -89.656 C 219.599 -93.473 226.996 -100.434 219.724 -102.876 C 211.951 -105.486 201.479 -111.827 193.183 -102.137 C 185.471 -93.131 178.43 -83.525 170.415 -74.811 C 126.347 -26.896 64.9 -.087 0 0 " fill-rule="evenodd"/>
<path transform="matrix(1,0,0,-1,156.7734,290.1392)" d="M 0 0 C 3.72 -4.343 6.832 -7.571 9.461 -11.15 C 12.505 -15.29 20.986 -19.515 16.959 -23.791 C 12.118 -28.925 2.863 -29.313 -4.864 -28.276 C -9.152 -27.7 -8.659 -23.585 -7.638 -20.56 C -5.487 -14.18 -5.417 -7.064 0 0 " fill-rule="evenodd"/>
<path transform="matrix(1,0,0,-1,409.918,161.83893)" d="M 0 0 C -2.01 .036 -3.62 1.717 -3.545 3.727 C -3.509 5.775 -1.828 7.348 .218 7.312 C 2.232 7.239 3.802 5.555 3.767 3.509 C 3.692 1.535 2.046 0 .111 0 Z M -18.133 3.472 C -18.207 5.484 -16.633 7.166 -14.624 7.239 C -12.576 7.312 -10.895 5.739 -10.821 3.727 C -10.748 1.717 -12.321 .036 -14.368 -.073 L -14.331 -.073 L -14.477 -.073 C -16.452 -.073 -18.06 1.498 -18.133 3.472 M 14.295 -.914 L 14.295 -.914 C 12.286 -.732 10.822 1.059 11.004 3.07 C 11.186 5.081 12.978 6.542 14.988 6.36 C 17.002 6.178 18.462 4.386 18.28 2.376 C 18.098 .475 16.523 -.952 14.66 -.952 C 14.513 -.952 14.406 -.914 14.295 -.914 M -32.648 2.229 C -32.866 4.24 -31.403 6.032 -29.394 6.251 C -27.382 6.434 -25.591 4.972 -25.372 2.959 C -25.189 .95 -26.651 -.843 -28.662 -1.025 C -28.772 -1.061 -28.881 -1.061 -29.027 -1.061 C -30.855 -1.061 -32.464 .329 -32.648 2.229 M 28.516 -2.779 L 28.516 -2.779 C 26.506 -2.451 25.153 -.55 25.481 1.424 C 25.81 3.437 27.712 4.788 29.687 4.459 C 31.697 4.131 33.05 2.229 32.722 .255 C 32.429 -1.537 30.858 -2.815 29.102 -2.815 C 28.919 -2.815 28.698 -2.815 28.516 -2.779 M -47.052 .036 C -47.418 2.01 -46.065 3.911 -44.091 4.24 C -42.079 4.57 -40.215 3.252 -39.849 1.243 C -39.521 -.732 -40.874 -2.633 -42.848 -2.961 C -43.066 -2.999 -43.25 -3.035 -43.469 -3.035 C -45.224 -3.035 -46.759 -1.757 -47.052 .036 M 42.554 -5.557 C 40.58 -5.12 39.373 -3.146 39.851 -1.171 C 40.287 .803 42.261 2.01 44.235 1.535 C 46.174 1.096 47.417 -.878 46.941 -2.853 C 46.578 -4.534 45.042 -5.668 43.396 -5.668 C 43.14 -5.668 42.847 -5.63 42.554 -5.557 M -61.31 -3.146 C -61.785 -1.171 -60.578 .803 -58.604 1.278 C -56.629 1.754 -54.657 .511 -54.18 -1.426 C -53.705 -3.401 -54.912 -5.375 -56.886 -5.85 C -57.179 -5.923 -57.472 -5.961 -57.727 -5.961 C -59.409 -5.961 -60.908 -4.827 -61.31 -3.146 M 56.41 -9.286 C 54.475 -8.703 53.375 -6.655 53.961 -4.754 C 54.582 -2.815 56.596 -1.719 58.531 -2.305 C 60.469 -2.888 61.565 -4.936 60.944 -6.875 C 60.469 -8.445 59.045 -9.47 57.47 -9.47 C 57.106 -9.47 56.738 -9.397 56.41 -9.286 M -75.275 -7.241 C -75.896 -5.339 -74.8 -3.292 -72.899 -2.671 C -70.962 -2.085 -68.915 -3.146 -68.293 -5.083 C -67.708 -6.983 -68.768 -9.069 -70.705 -9.652 C -71.071 -9.763 -71.437 -9.836 -71.803 -9.836 C -73.338 -9.836 -74.8 -8.812 -75.275 -7.241 M 69.974 -13.967 C 68.074 -13.235 67.125 -11.152 67.853 -9.251 C 68.585 -7.349 70.705 -6.436 72.569 -7.13 C 74.472 -7.862 75.422 -9.983 74.69 -11.846 C 74.144 -13.308 72.755 -14.222 71.255 -14.222 C 70.852 -14.222 70.413 -14.149 69.974 -13.967 M -88.949 -12.321 C -89.679 -10.42 -88.765 -8.299 -86.864 -7.569 C -85 -6.837 -82.879 -7.789 -82.149 -9.652 C -81.417 -11.553 -82.367 -13.674 -84.232 -14.406 C -84.672 -14.553 -85.109 -14.624 -85.548 -14.624 C -87.01 -14.624 -88.401 -13.747 -88.949 -12.321 M 83.208 -19.524 C 81.345 -18.683 80.577 -16.525 81.416 -14.697 C 82.259 -12.869 84.415 -12.066 86.243 -12.907 C 88.106 -13.747 88.875 -15.941 88.035 -17.769 C 87.45 -19.085 86.097 -19.89 84.744 -19.89 C 84.197 -19.89 83.684 -19.779 83.208 -19.524 M -102.257 -18.244 C -103.098 -16.416 -102.328 -14.26 -100.5 -13.419 C -98.672 -12.541 -96.48 -13.346 -95.64 -15.174 C -94.761 -17.002 -95.566 -19.158 -97.394 -20.037 C -97.905 -20.254 -98.417 -20.365 -98.93 -20.365 C -100.318 -20.365 -101.634 -19.597 -102.257 -18.244 M 96.004 -25.995 C 94.251 -25.008 93.591 -22.814 94.544 -21.022 C 95.529 -19.231 97.725 -18.61 99.514 -19.56 C 101.27 -20.547 101.927 -22.741 100.978 -24.533 C 100.32 -25.738 99.039 -26.435 97.761 -26.435 C 97.175 -26.435 96.554 -26.288 96.004 -25.995 M -115.124 -25.081 C -116.111 -23.327 -115.455 -21.095 -113.662 -20.108 C -111.908 -19.158 -109.678 -19.779 -108.726 -21.534 C -107.741 -23.327 -108.362 -25.556 -110.153 -26.506 C -110.701 -26.836 -111.324 -26.982 -111.908 -26.982 C -113.188 -26.982 -114.467 -26.288 -115.124 -25.081 M 108.361 -33.27 L 108.361 -33.27 C 106.679 -32.173 106.168 -29.944 107.229 -28.225 C 108.325 -26.506 110.592 -26.031 112.309 -27.091 L 112.274 -27.091 C 113.991 -28.189 114.505 -30.455 113.405 -32.136 C 112.713 -33.234 111.542 -33.855 110.335 -33.855 C 109.643 -33.855 108.982 -33.673 108.361 -33.27 M -127.482 -32.759 C -128.616 -31.076 -128.104 -28.811 -126.385 -27.712 C -124.703 -26.617 -122.436 -27.091 -121.34 -28.811 C -120.244 -30.492 -120.754 -32.759 -122.436 -33.855 C -123.059 -34.257 -123.753 -34.44 -124.41 -34.44 C -125.617 -34.44 -126.788 -33.855 -127.482 -32.759 M 120.207 -41.386 L 120.207 -41.386 C 118.561 -40.18 118.232 -37.877 119.439 -36.269 C 120.61 -34.623 122.913 -34.257 124.52 -35.463 C 126.166 -36.67 126.494 -38.938 125.327 -40.582 C 124.595 -41.568 123.499 -42.081 122.363 -42.081 C 121.631 -42.081 120.864 -41.826 120.207 -41.386 M -139.364 -41.24 C -140.571 -39.632 -140.205 -37.329 -138.597 -36.122 C -136.951 -34.916 -134.684 -35.281 -133.477 -36.89 C -132.272 -38.498 -132.636 -40.801 -134.246 -42.008 C -134.903 -42.482 -135.671 -42.702 -136.403 -42.702 C -137.536 -42.702 -138.632 -42.228 -139.364 -41.24 M 131.503 -50.233 C 129.932 -48.918 129.75 -46.613 131.028 -45.078 C 132.346 -43.542 134.648 -43.323 136.184 -44.641 C 137.754 -45.919 137.94 -48.259 136.623 -49.794 C 135.927 -50.635 134.866 -51.074 133.845 -51.074 C 133.002 -51.074 132.164 -50.819 131.503 -50.233 M -150.625 -50.489 C -151.94 -48.954 -151.721 -46.65 -150.186 -45.335 C -148.651 -44.018 -146.346 -44.202 -145.03 -45.772 C -143.75 -47.31 -143.934 -49.612 -145.469 -50.928 L -145.469 -50.892 C -146.164 -51.513 -147.005 -51.769 -147.81 -51.769 C -148.87 -51.769 -149.893 -51.33 -150.625 -50.489 M 142.143 -59.813 C 140.682 -58.424 140.643 -56.119 142.032 -54.657 C 143.459 -53.195 145.763 -53.157 147.223 -54.548 C 148.651 -55.937 148.722 -58.277 147.298 -59.702 C 146.602 -60.469 145.652 -60.835 144.667 -60.835 C 143.752 -60.835 142.875 -60.507 142.143 -59.813 M 152.161 -70.086 L 152.161 -70.086 C 150.771 -68.586 150.878 -66.284 152.378 -64.93 C 153.877 -63.577 156.181 -63.688 157.569 -65.186 C 158.922 -66.685 158.815 -68.988 157.316 -70.341 C 156.62 -70.962 155.706 -71.291 154.828 -71.291 C 153.842 -71.291 152.853 -70.889 152.161 -70.086 M -171.17 -71.146 C -172.669 -69.793 -172.815 -67.49 -171.462 -65.991 C -170.109 -64.491 -167.771 -64.382 -166.271 -65.698 C -164.772 -67.087 -164.663 -69.392 -166.017 -70.889 C -166.747 -71.694 -167.733 -72.096 -168.721 -72.096 C -169.599 -72.096 -170.476 -71.768 -171.17 -71.146 M 161.447 -81.016 L 161.447 -81.016 C 160.165 -79.445 160.422 -77.141 162.032 -75.861 C 163.603 -74.618 165.906 -74.875 167.148 -76.446 C 168.43 -78.019 168.137 -80.322 166.563 -81.602 C 165.906 -82.114 165.103 -82.405 164.299 -82.405 C 163.2 -82.405 162.139 -81.93 161.447 -81.016 M -180.383 -82.442 C -181.991 -81.2 -182.249 -78.896 -181.004 -77.325 C -179.762 -75.716 -177.458 -75.459 -175.886 -76.704 C -174.278 -77.946 -174.022 -80.249 -175.265 -81.857 C -175.959 -82.771 -177.057 -83.246 -178.118 -83.246 C -178.921 -83.246 -179.726 -82.991 -180.383 -82.442 M -196.468 -106.792 C -198.188 -105.767 -198.773 -103.537 -197.749 -101.782 C -196.726 -100.028 -194.496 -99.442 -192.741 -100.502 C -191.022 -101.525 -190.437 -103.757 -191.461 -105.512 C -192.118 -106.645 -193.362 -107.302 -194.605 -107.302 C -195.226 -107.302 -195.885 -107.12 -196.468 -106.792 M -203.232 -119.696 C -205.06 -118.782 -205.755 -116.588 -204.878 -114.798 C -203.964 -113.005 -201.771 -112.275 -199.942 -113.189 C -198.152 -114.066 -197.42 -116.295 -198.334 -118.088 C -198.993 -119.368 -200.271 -120.098 -201.624 -120.098 C -202.172 -120.098 -202.722 -119.989 -203.232 -119.696 M -209.156 -133.04 C -211.021 -132.272 -211.862 -130.116 -211.092 -128.25 C -210.325 -126.387 -208.168 -125.546 -206.305 -126.314 C -204.439 -127.117 -203.563 -129.238 -204.366 -131.103 C -204.952 -132.492 -206.305 -133.333 -207.729 -133.333 C -208.206 -133.333 -208.681 -133.26 -209.156 -133.04 M -214.127 -146.787 C -216.066 -146.128 -217.053 -144.045 -216.394 -142.106 C -215.735 -140.206 -213.652 -139.218 -211.751 -139.877 C -209.85 -140.536 -208.827 -142.619 -209.484 -144.521 C -209.996 -146.02 -211.423 -146.969 -212.958 -146.969 C -213.359 -146.969 -213.726 -146.934 -214.127 -146.787 M 202.976 -275.657 C 201.041 -275.111 199.905 -273.101 200.419 -271.162 C 200.966 -269.223 202.976 -268.052 204.915 -268.602 C 206.853 -269.113 208.024 -271.126 207.474 -273.101 C 207.035 -274.707 205.575 -275.768 203.965 -275.768 C 203.636 -275.768 203.308 -275.732 202.976 -275.657 M 198.445 -289.513 C 196.542 -288.856 195.521 -286.771 196.214 -284.836 C 196.871 -282.933 198.92 -281.948 200.858 -282.605 C 202.758 -283.262 203.747 -285.347 203.086 -287.246 L 203.122 -287.246 C 202.576 -288.746 201.148 -289.695 199.652 -289.695 C 199.249 -289.695 198.845 -289.66 198.445 -289.513 M 192.961 -303.041 C 191.094 -302.237 190.255 -300.117 191.022 -298.253 C 191.826 -296.386 193.982 -295.511 195.85 -296.314 C 197.678 -297.082 198.552 -299.239 197.785 -301.103 L 197.749 -301.103 C 197.164 -302.491 195.811 -303.333 194.421 -303.333 C 193.911 -303.333 193.437 -303.223 192.961 -303.041 M 186.599 -316.165 C 184.807 -315.251 184.075 -313.059 184.989 -311.267 C 185.903 -309.438 188.099 -308.746 189.891 -309.66 C 191.719 -310.535 192.447 -312.766 191.533 -314.559 C 190.876 -315.836 189.598 -316.568 188.245 -316.568 C 187.695 -316.568 187.11 -316.422 186.599 -316.165 M 179.359 -328.854 C 177.641 -327.793 177.056 -325.562 178.081 -323.845 C 179.105 -322.088 181.373 -321.502 183.09 -322.563 C 184.843 -323.587 185.393 -325.819 184.368 -327.572 C 183.675 -328.707 182.468 -329.364 181.226 -329.364 C 180.604 -329.364 179.944 -329.182 179.359 -328.854 M 171.319 -340.989 C 169.637 -339.857 169.198 -337.59 170.365 -335.909 C 171.5 -334.263 173.768 -333.823 175.449 -334.959 C 177.095 -336.126 177.531 -338.393 176.399 -340.075 C 175.667 -341.1 174.535 -341.649 173.364 -341.649 C 172.672 -341.649 171.94 -341.428 171.319 -340.989 M -189.376 -340.296 C -190.547 -338.65 -190.108 -336.348 -188.462 -335.212 C -186.781 -334.081 -184.516 -334.48 -183.382 -336.166 C -182.21 -337.808 -182.65 -340.075 -184.296 -341.246 C -184.917 -341.685 -185.647 -341.867 -186.379 -341.867 C -187.548 -341.867 -188.682 -341.317 -189.376 -340.296 M 162.432 -352.578 C 160.861 -351.335 160.604 -349.033 161.847 -347.462 C 163.093 -345.888 165.396 -345.595 167.002 -346.841 C 168.577 -348.119 168.83 -350.421 167.587 -351.993 C 166.856 -352.907 165.795 -353.385 164.699 -353.385 C 163.932 -353.385 163.128 -353.128 162.432 -352.578 M -180.566 -352.214 C -181.845 -350.604 -181.554 -348.336 -179.981 -347.059 C -178.409 -345.816 -176.105 -346.073 -174.826 -347.68 C -173.583 -349.25 -173.838 -351.557 -175.447 -352.799 C -176.105 -353.346 -176.911 -353.603 -177.714 -353.603 C -178.774 -353.603 -179.873 -353.128 -180.566 -352.214 M 152.853 -363.585 C 151.357 -362.232 151.211 -359.89 152.6 -358.391 C 153.953 -356.895 156.255 -356.784 157.755 -358.137 C 159.251 -359.49 159.361 -361.792 158.008 -363.292 C 157.276 -364.096 156.292 -364.499 155.306 -364.499 C 154.428 -364.499 153.549 -364.206 152.853 -363.585 M -170.988 -363.51 C -172.341 -362.011 -172.23 -359.708 -170.732 -358.354 C -169.233 -357.001 -166.93 -357.112 -165.577 -358.612 C -164.224 -360.111 -164.334 -362.414 -165.833 -363.767 C -166.527 -364.388 -167.405 -364.717 -168.282 -364.717 C -169.269 -364.717 -170.256 -364.313 -170.988 -363.51 M 142.546 -373.892 C 141.118 -372.432 141.157 -370.125 142.617 -368.701 C 144.081 -367.312 146.384 -367.348 147.772 -368.812 C 149.197 -370.236 149.162 -372.578 147.701 -373.967 C 147.005 -374.66 146.091 -374.988 145.177 -374.988 C 144.191 -374.988 143.238 -374.624 142.546 -373.892 M -160.679 -374.149 L -160.679 -374.149 C -162.141 -372.76 -162.177 -370.418 -160.752 -368.994 C -159.361 -367.53 -157.059 -367.495 -155.597 -368.883 C -154.135 -370.312 -154.097 -372.614 -155.486 -374.074 C -156.218 -374.806 -157.167 -375.174 -158.119 -375.174 C -159.033 -375.174 -159.947 -374.842 -160.679 -374.149 M 131.578 -383.471 C 130.261 -381.936 130.443 -379.633 131.978 -378.316 C 133.513 -377.038 135.855 -377.22 137.133 -378.755 C 138.451 -380.29 138.269 -382.593 136.733 -383.91 C 136.038 -384.496 135.198 -384.789 134.355 -384.789 C 133.331 -384.789 132.271 -384.35 131.578 -383.471 M -149.673 -384.092 L -149.673 -384.092 C -151.209 -382.779 -151.393 -380.472 -150.113 -378.937 C -148.797 -377.402 -146.492 -377.184 -144.957 -378.498 C -143.422 -379.815 -143.202 -382.118 -144.518 -383.653 C -145.25 -384.496 -146.273 -384.935 -147.297 -384.935 C -148.138 -384.935 -148.979 -384.678 -149.673 -384.092 M 119.989 -392.354 C 118.782 -390.712 119.111 -388.405 120.757 -387.238 C 122.363 -386.031 124.666 -386.36 125.873 -388.006 C 127.08 -389.612 126.715 -391.918 125.105 -393.086 C 124.448 -393.6 123.681 -393.818 122.913 -393.818 C 121.817 -393.818 120.682 -393.308 119.989 -392.354 M -138.047 -393.268 L -138.011 -393.268 C -139.657 -392.061 -139.985 -389.798 -138.816 -388.152 C -137.609 -386.542 -135.305 -386.178 -133.696 -387.384 C -132.052 -388.591 -131.722 -390.858 -132.929 -392.5 C -133.624 -393.49 -134.757 -394 -135.855 -394 C -136.623 -394 -137.39 -393.747 -138.047 -393.268 M 107.85 -400.398 C 106.754 -398.681 107.265 -396.414 108.946 -395.353 C 110.664 -394.257 112.895 -394.768 113.991 -396.449 C 115.091 -398.17 114.612 -400.398 112.895 -401.494 C 112.274 -401.897 111.617 -402.08 110.92 -402.08 C 109.714 -402.08 108.546 -401.494 107.85 -400.398 M -125.801 -401.68 C -127.519 -400.58 -127.993 -398.316 -126.935 -396.631 C -125.836 -394.914 -123.569 -394.403 -121.853 -395.5 C -120.17 -396.596 -119.658 -398.863 -120.754 -400.544 C -121.451 -401.641 -122.62 -402.226 -123.827 -402.226 C -124.521 -402.226 -125.178 -402.044 -125.801 -401.68 M 95.201 -407.638 C 94.212 -405.846 94.873 -403.615 96.625 -402.665 C 98.417 -401.68 100.649 -402.336 101.599 -404.089 C 102.584 -405.882 101.927 -408.078 100.174 -409.062 C 99.588 -409.392 99.003 -409.538 98.417 -409.538 C 97.1 -409.538 95.857 -408.845 95.201 -407.638 M -113.041 -409.209 C -114.796 -408.259 -115.455 -406.028 -114.503 -404.275 C -113.516 -402.483 -111.286 -401.826 -109.532 -402.812 C -107.741 -403.761 -107.118 -405.993 -108.069 -407.785 C -108.726 -408.991 -110.006 -409.684 -111.286 -409.684 C -111.872 -409.684 -112.493 -409.538 -113.041 -409.209 M 82.112 -413.997 C 81.234 -412.169 82.041 -409.977 83.869 -409.138 C 85.697 -408.295 87.889 -409.062 88.728 -410.927 C 89.57 -412.719 88.767 -414.911 86.939 -415.753 C 86.464 -416.01 85.915 -416.118 85.404 -416.118 C 84.051 -416.118 82.733 -415.314 82.112 -413.997 M -99.806 -415.9 L -99.806 -415.9 C -101.634 -415.057 -102.439 -412.901 -101.561 -411.073 C -100.72 -409.245 -98.563 -408.441 -96.7 -409.284 C -94.872 -410.124 -94.103 -412.315 -94.945 -414.144 C -95.566 -415.46 -96.882 -416.264 -98.271 -416.264 C -98.783 -416.264 -99.295 -416.157 -99.806 -415.9 M 68.585 -419.48 C 67.853 -417.582 68.806 -415.46 70.705 -414.729 C 72.569 -413.997 74.69 -414.95 75.422 -416.85 C 76.154 -418.713 75.204 -420.834 73.337 -421.565 C 72.901 -421.712 72.462 -421.823 72.023 -421.823 C 70.559 -421.823 69.17 -420.909 68.585 -419.48 M -86.134 -421.712 L -86.134 -421.712 C -87.997 -420.98 -88.949 -418.859 -88.217 -416.96 C -87.522 -415.097 -85.402 -414.144 -83.5 -414.875 C -81.6 -415.607 -80.686 -417.728 -81.417 -419.591 C -81.965 -421.055 -83.354 -421.934 -84.818 -421.934 C -85.255 -421.934 -85.694 -421.858 -86.134 -421.712 M 54.768 -424.015 C 54.143 -422.08 55.243 -420.031 57.142 -419.445 C 59.081 -418.859 61.126 -419.92 61.748 -421.858 C 62.333 -423.761 61.273 -425.843 59.338 -426.428 C 58.97 -426.539 58.606 -426.575 58.238 -426.575 C 56.703 -426.575 55.243 -425.589 54.768 -424.015 M -72.096 -426.539 L -72.096 -426.539 C -74.032 -425.954 -75.093 -423.908 -74.507 -421.969 C -73.923 -420.066 -71.876 -418.97 -69.938 -419.556 C -68 -420.141 -66.94 -422.187 -67.525 -424.125 C -68 -425.696 -69.462 -426.721 -71.035 -426.721 C -71.364 -426.721 -71.729 -426.65 -72.096 -426.539 M 40.619 -427.635 C 40.18 -425.661 41.386 -423.687 43.321 -423.248 C 45.296 -422.772 47.271 -423.979 47.745 -425.954 C 48.224 -427.892 47.017 -429.867 45.042 -430.341 C 44.75 -430.413 44.457 -430.448 44.2 -430.448 C 42.519 -430.448 41.019 -429.317 40.619 -427.635 M -57.8 -430.448 L -57.8 -430.448 C -59.737 -429.974 -60.981 -428 -60.505 -426.064 C -60.03 -424.09 -58.093 -422.883 -56.119 -423.322 C -54.145 -423.797 -52.938 -425.771 -53.377 -427.707 C -53.778 -429.392 -55.278 -430.559 -56.959 -430.559 C -57.215 -430.559 -57.508 -430.523 -57.8 -430.448 M 26.288 -430.306 C 25.956 -428.292 27.309 -426.428 29.284 -426.1 C 31.293 -425.736 33.161 -427.085 33.525 -429.099 C 33.854 -431.073 32.5 -432.973 30.526 -433.301 C 30.308 -433.337 30.09 -433.337 29.905 -433.337 C 28.152 -433.337 26.577 -432.094 26.288 -430.306 M -43.25 -433.376 C -45.26 -433.048 -46.613 -431.145 -46.247 -429.17 C -45.954 -427.16 -44.053 -425.807 -42.079 -426.171 C -40.069 -426.464 -38.715 -428.367 -39.046 -430.341 C -39.337 -432.134 -40.909 -433.412 -42.664 -433.412 C -42.848 -433.412 -43.066 -433.412 -43.25 -433.376 M 11.811 -431.987 C 11.625 -429.974 13.089 -428.185 15.099 -428 C 17.109 -427.781 18.901 -429.245 19.083 -431.255 C 19.305 -433.265 17.841 -435.058 15.831 -435.275 L 15.467 -435.275 C 13.599 -435.275 11.993 -433.887 11.811 -431.987 M -28.553 -435.311 C -30.563 -435.093 -32.025 -433.301 -31.843 -431.327 C -31.661 -429.317 -29.868 -427.817 -27.858 -428.039 C -25.847 -428.221 -24.384 -430.013 -24.568 -432.023 C -24.75 -433.922 -26.359 -435.311 -28.224 -435.311 Z M -2.742 -432.716 C -2.813 -430.706 -1.242 -429.024 .803 -428.953 C 2.813 -428.877 4.499 -430.448 4.57 -432.462 C 4.642 -434.508 3.035 -436.189 1.025 -436.265 L .914 -436.265 C -1.06 -436.265 -2.67 -434.69 -2.742 -432.716 M -13.783 -436.265 L -13.783 -436.265 C -15.792 -436.225 -17.365 -434.508 -17.328 -432.498 C -17.256 -430.488 -15.573 -428.914 -13.563 -428.953 C -11.516 -429.024 -9.943 -430.706 -10.018 -432.716 C -10.089 -434.729 -11.7 -436.265 -13.672 -436.265 Z "/>
<path transform="matrix(1,0,0,-1,550.6465,321.5469)" d="M 0 0 L -.636 -.107 L -3.788 -17.409 L -11.521 -42.122 L 6.58 -39.112 L 1.803 -16.327 Z " fill-rule="evenodd"/>
<path transform="matrix(1,0,0,-1,490.3022,335.5137)" d="M 0 0 C -.396 3.356 -1.717 6.08 -3.956 8.183 C -6.198 10.275 -9.486 10.964 -13.82 10.243 C -15.523 9.958 -17.105 9.622 -18.572 9.226 C -20.043 8.833 -21.275 8.451 -22.275 8.083 L -24.32 -22.942 L -17.565 -21.817 C -15.102 -21.407 -12.71 -20.736 -10.396 -19.793 C -8.083 -18.858 -6.094 -17.516 -4.434 -15.781 C -2.778 -14.042 -1.517 -11.893 -.653 -9.329 C .214 -6.766 .432 -3.656 0 0 " fill-rule="evenodd"/>
<path transform="matrix(1,0,0,-1,269.7183,368.2813)" d="M 0 0 L -.636 -.107 L -3.788 -17.411 L -11.521 -42.124 L 6.58 -39.114 L 1.803 -16.329 Z " fill-rule="evenodd"/>
<path transform="matrix(1,0,0,-1,643.5801,386.3486)" d="M 0 0 L -37.095 -6.169 L -53.661 -8.929 L -47.078 97.973 L -30.508 100.733 L -36.049 12.442 L 1.042 18.614 Z M -78.517 -13.063 L -83.787 9.49 L -109.789 5.163 L -117.65 -19.572 L -135.241 -22.5 L -135.241 -22.496 L -152.449 -25.359 L -169.494 13.217 L -178.516 13.687 L -181.126 -30.133 L -197.699 -32.889 L -191.119 72.953 C -187.146 74.52 -183.1 75.848 -178.983 76.934 C -174.867 78.022 -171.15 78.847 -167.833 79.397 C -163.928 80.047 -160.168 80.115 -156.555 79.611 C -152.942 79.101 -149.729 77.951 -146.916 76.148 C -144.102 74.349 -141.746 71.817 -139.843 68.558 C -137.944 65.302 -136.712 61.296 -136.147 56.551 C -135.505 51.117 -135.648 46.287 -136.576 42.052 C -137.504 37.811 -138.954 34.144 -140.928 31.045 C -142.903 27.946 -145.266 25.386 -148.012 23.369 C -150.764 21.348 -153.638 19.838 -156.641 18.835 L -151.125 15.068 L -134.72 -20.925 L -98.025 90.257 L -85.786 92.293 L -61.823 -10.286 Z M -210.206 2.513 C -210.637 -4.809 -211.583 -11.089 -213.047 -16.319 C -214.507 -21.55 -216.503 -25.938 -219.027 -29.483 C -221.555 -33.032 -224.693 -35.792 -228.442 -37.777 C -232.194 -39.762 -236.618 -41.179 -241.716 -42.029 C -246.645 -42.847 -250.888 -42.872 -254.446 -42.104 C -258.004 -41.333 -261.01 -39.897 -263.47 -37.788 C -265.93 -35.674 -267.847 -33.021 -269.22 -29.822 C -270.598 -26.627 -271.524 -23.006 -272.003 -18.951 C -272.237 -16.973 -272.371 -14.931 -272.405 -12.817 C -272.438 -10.71 -272.377 -8.483 -272.221 -6.137 L -267.974 61.228 L -251.531 63.962 L -255.539 -3.213 C -255.774 -7.083 -255.753 -10.2 -255.473 -12.574 C -254.912 -17.316 -253.452 -20.5 -251.092 -22.121 C -248.735 -23.746 -245.513 -24.217 -241.435 -23.539 C -236.336 -22.689 -232.587 -20.304 -230.195 -16.376 C -227.803 -12.457 -226.339 -6.52 -225.804 1.432 L -221.577 68.947 L -206.024 71.532 Z M -278.579 41.021 L -303.307 36.908 L -308.846 -51.376 L -325.287 -54.114 L -319.876 34.151 L -344.605 30.039 L -343.431 48.675 L -277.533 59.639 Z M -359.447 -59.794 L -364.715 -37.245 L -390.721 -41.572 L -398.579 -66.307 L -416.169 -69.23 L -378.953 43.523 L -366.718 45.558 L -342.749 -57.017 Z M -424.367 -71.352 L -435.838 -73.261 L -464.143 -21.889 L -470.315 -5.991 L -470.951 -6.098 L -470.133 -22.885 L -473.527 -78.774 L -489.206 -81.38 L -482.455 26.307 L -470.983 28.214 L -442.498 -23.582 L -436.634 -39.08 L -435.868 -38.952 L -436.889 -22.65 L -433.292 33.726 L -417.613 36.336 Z M 82.426 -14.37 C 57.624 25.593 47.641 69.486 48.441 116.222 C 48.927 123.506 48.766 130.901 50.041 138.045 C 52.119 149.665 46.773 151.36 37.027 149.718 C -14.238 141.066 -65.536 132.61 -116.833 124.137 C -219.035 107.257 -321.258 90.459 -423.453 73.529 C -468.443 66.078 -513.371 58.263 -558.379 50.93 C -566.325 49.637 -569.353 47.456 -563.563 40.149 C -561.876 38.02 -560.55 35.597 -559.118 33.275 C -530.862 -12.514 -516.188 -61.305 -528.146 -115.29 C -530.498 -125.908 -526.965 -125.712 -518.982 -124.387 C -442.497 -111.685 -365.968 -99.235 -289.474 -86.568 C -167.044 -66.295 -44.642 -45.824 77.817 -25.724 C 87.35 -24.16 86.728 -21.296 82.426 -14.37 " fill-rule="evenodd"/>
<path transform="matrix(1,0,0,-1,403.0332,523.7837)" d="M 0 0 L .919 18.177 C .987 19.425 1.023 20.526 1.03 21.477 C 1.034 22.427 .979 23.27 .863 24.003 C .548 25.987 -.362 26.859 -1.869 26.62 C -2.6 26.504 -3.303 26.195 -3.973 25.69 C -4.642 25.187 -5.241 24.584 -5.77 23.881 C -6.297 23.179 -6.774 22.43 -7.2 21.633 C -7.625 20.836 -7.958 20.086 -8.201 19.386 L -9.165 -1.453 L -17.225 -2.729 L -15.481 30.86 L -9.176 31.859 L -8.661 26.078 L -8.401 26.118 C -7.861 26.915 -7.274 27.765 -6.639 28.664 C -6.004 29.564 -5.262 30.413 -4.411 31.216 C -3.562 32.016 -2.584 32.726 -1.483 33.344 C -.381 33.963 .861 34.382 2.249 34.602 C 3.98 34.876 5.392 34.457 6.479 33.339 C 7.565 32.224 8.231 30.619 8.474 28.526 C 8.994 29.45 9.611 30.394 10.327 31.35 C 11.041 32.306 11.834 33.188 12.705 33.994 C 13.579 34.796 14.534 35.491 15.574 36.08 C 16.613 36.666 17.719 37.051 18.888 37.237 C 20.88 37.552 22.482 37.327 23.691 36.566 C 24.901 35.802 25.708 34.142 26.113 31.585 C 26.408 29.723 26.467 27.245 26.291 24.151 L 25.284 4.004 L 17.225 2.728 L 18.182 21.508 C 18.24 22.533 18.267 23.488 18.26 24.372 C 18.254 25.255 18.2 26.02 18.098 26.666 C 17.939 27.657 17.636 28.383 17.189 28.844 C 16.741 29.303 16.087 29.464 15.227 29.328 C 14.538 29.219 13.871 28.903 13.227 28.382 C 12.579 27.857 11.983 27.235 11.438 26.507 C 10.89 25.778 10.406 25.007 9.984 24.187 C 9.563 23.37 9.253 22.613 9.055 21.921 L 8.059 1.276 Z "/>
<path transform="matrix(1,0,0,-1,447.1699,510.9312)" d="M 0 0 C .78 .123 1.491 .404 2.132 .84 C 2.774 1.278 3.347 1.802 3.848 2.42 C 4.351 3.037 4.78 3.686 5.138 4.367 C 5.498 5.05 5.808 5.679 6.072 6.258 L 6.908 22.011 C 6.396 22.153 5.818 22.229 5.173 22.24 C 4.527 22.249 3.901 22.205 3.294 22.109 C 1.735 21.861 .422 21.172 -.642 20.043 C -1.707 18.914 -2.542 17.531 -3.148 15.893 C -3.757 14.254 -4.125 12.452 -4.259 10.487 C -4.392 8.523 -4.306 6.58 -4.003 4.662 C -3.782 3.266 -3.362 2.093 -2.746 1.141 C -2.128 .187 -1.213 -.191 0 0 M 14.121 9.699 C 14.036 7.998 14.051 6.291 14.167 4.576 C 14.282 2.862 14.461 1.246 14.701 -.27 C 14.798 -.876 14.898 -1.45 15.006 -1.988 C 15.114 -2.526 15.227 -3.029 15.346 -3.498 L 9.432 -4.435 L 7.635 1.01 L 7.376 .969 C 7.023 .113 6.526 -.753 5.889 -1.633 C 5.25 -2.512 4.527 -3.337 3.716 -4.107 C 2.907 -4.882 2.021 -5.534 1.062 -6.062 C .1 -6.59 -.921 -6.941 -2.005 -7.113 C -4.864 -7.566 -7.124 -6.969 -8.784 -5.322 C -10.444 -3.674 -11.522 -1.292 -12.015 1.829 C -12.516 4.99 -12.596 8.087 -12.254 11.117 C -11.912 14.148 -11.072 16.902 -9.731 19.379 C -8.392 21.857 -6.538 23.961 -4.169 25.691 C -1.801 27.42 1.162 28.566 4.714 29.13 C 6.231 29.371 7.911 29.491 9.755 29.495 C 11.596 29.498 13.401 29.395 15.167 29.186 Z "/>
<path transform="matrix(1,0,0,-1,476.0776,478.9028)" d="M 0 0 L .99 -5.826 L 1.249 -5.784 C 1.922 -3.867 2.844 -2.184 4.013 -.731 C 5.183 .72 6.808 1.613 8.886 1.942 C 9.796 2.086 10.907 2.081 12.221 1.925 L 11.326 -5.468 C 10.872 -5.406 10.444 -5.365 10.04 -5.338 C 9.636 -5.314 9.216 -5.336 8.784 -5.405 C 7.007 -5.686 5.462 -6.515 4.148 -7.895 C 2.835 -9.275 1.907 -10.779 1.366 -12.413 L .337 -33.26 L -7.723 -34.536 L -5.98 -.946 Z "/>
<path transform="matrix(1,0,0,-1,501.9067,494.334)" d="M 0 0 L -2.535 -.401 L -3.199 -14.298 L -11.259 -15.574 L -8.845 31.447 L -.786 32.723 L -2.254 4.975 L -.048 6.188 L 7.058 20.641 L 15.962 22.05 L 8.347 7.452 L 4.791 4.358 L 8.025 2.338 L 15.26 -11.374 L 6.81 -12.713 Z "/>
<path transform="matrix(1,0,0,-1,526.3501,484.5986)" d="M 0 0 C 1.212 .191 2.494 .439 3.846 .741 C 5.198 1.043 6.434 1.444 7.552 1.952 C 8.671 2.454 9.573 3.079 10.255 3.818 C 10.938 4.561 11.194 5.462 11.025 6.529 C 10.923 7.168 10.582 7.779 10.002 8.363 C 9.42 8.946 8.37 9.121 6.855 8.881 C 4.948 8.579 3.404 7.592 2.227 5.919 C 1.047 4.249 .305 2.274 0 0 M 17.231 -13.728 C 16.065 -15.068 14.483 -16.295 12.485 -17.411 C 10.484 -18.528 8.077 -19.31 5.26 -19.755 C 1.75 -20.311 -1.175 -19.719 -3.515 -17.979 C -5.857 -16.242 -7.318 -13.53 -7.901 -9.847 C -8.451 -6.381 -8.406 -3.163 -7.764 -.197 C -7.125 2.77 -6.081 5.367 -4.635 7.596 C -3.189 9.822 -1.444 11.642 .597 13.053 C 2.638 14.465 4.765 15.346 6.974 15.695 C 8.75 15.978 10.315 15.992 11.665 15.739 C 13.015 15.485 14.166 15.024 15.116 14.353 C 16.065 13.682 16.818 12.857 17.373 11.88 C 17.928 10.901 18.298 9.827 18.484 8.657 C 18.766 6.88 18.557 5.247 17.859 3.761 C 17.162 2.273 16.071 .958 14.588 -.187 C 13.103 -1.334 11.249 -2.317 9.025 -3.135 C 6.799 -3.954 4.321 -4.579 1.592 -5.011 C 1.246 -5.065 .918 -5.107 .612 -5.133 C .306 -5.161 -.021 -5.201 -.368 -5.256 C -.372 -5.794 -.362 -6.273 -.34 -6.694 C -.317 -7.115 -.278 -7.501 -.223 -7.851 C .089 -9.816 .829 -11.199 1.999 -11.998 C 3.169 -12.797 4.687 -13.05 6.55 -12.754 C 8.456 -12.453 10.122 -11.894 11.548 -11.076 C 12.973 -10.257 14.03 -9.498 14.718 -8.796 Z "/>
<path transform="matrix(1,0,0,-1,547.8965,467.5278)" d="M 0 0 L 4.225 .668 L 4.558 6.985 L 12.756 10.749 L 12.284 1.945 L 19.89 3.15 L 19.443 -3.717 L 11.905 -4.912 L 11.062 -20.199 C 10.988 -21.419 11.01 -22.399 11.127 -23.14 C 11.28 -24.101 11.599 -24.719 12.088 -25 C 12.576 -25.281 13.254 -25.351 14.121 -25.213 C 14.943 -25.083 15.676 -24.874 16.32 -24.583 C 16.962 -24.293 17.619 -23.884 18.29 -23.354 L 19.238 -29.334 C 18.799 -29.669 18.262 -30.011 17.626 -30.354 C 16.99 -30.698 16.291 -31.012 15.533 -31.286 C 14.772 -31.562 13.987 -31.809 13.174 -32.026 C 12.361 -32.243 11.607 -32.408 10.911 -32.519 C 8.69 -32.87 6.901 -32.629 5.543 -31.799 C 4.186 -30.97 3.341 -29.509 3.011 -27.422 C 2.941 -26.989 2.902 -26.529 2.893 -26.04 C 2.881 -25.552 2.877 -25.042 2.883 -24.506 L 3.845 -6.188 L -.51 -6.877 Z "/>
</g>
</g>
</g>
</svg>
